M48
;GenerationSoftware,Autodesk,EAGLE,9.6.2*%
;CreationDate,2020-10-21T12:38:47Z*%
FMAT,2
ICI,OFF
METRIC,TZ,000.000
T3C0.813
T2C0.900
T1C4.000
%
G90
M71
T1
X49530Y17145
X49530Y5715
T2
X19177Y15516
X26797Y15516
X19177Y18451
X26797Y18451
X19177Y9688
X26797Y9688
X19177Y12609
X26797Y12609
T3
X38058Y15639
X38058Y13099
X38058Y10559
X38058Y8019
X30438Y8019
X30438Y10559
X30438Y13099
X30438Y15639
X13853Y9924
X13853Y20084
X10508Y9924
X10508Y20084
X22225Y5715
X12065Y5715
X22225Y3175
X12065Y3175
X32893Y4445
X35687Y4445
M30