G04 EAGLE Gerber RS-274X export*
G75*
%MOMM*%
%FSLAX34Y34*%
%LPD*%
%INSilkscreen Bottom*%
%IPPOS*%
%AMOC8*
5,1,8,0,0,1.08239X$1,22.5*%
G01*
%ADD10C,0.203200*%
%ADD11C,0.254000*%
%ADD12C,0.127000*%


D10*
X317080Y169090D02*
X317080Y67490D01*
X317080Y169090D02*
X357720Y169090D01*
X367880Y67490D02*
X317080Y67490D01*
X367880Y67490D02*
X367880Y169090D01*
X357720Y169090D01*
X352640Y169090D01*
D11*
X347996Y156390D02*
X347998Y156566D01*
X348005Y156743D01*
X348015Y156918D01*
X348031Y157094D01*
X348050Y157269D01*
X348074Y157444D01*
X348102Y157618D01*
X348134Y157792D01*
X348171Y157964D01*
X348211Y158136D01*
X348256Y158306D01*
X348305Y158475D01*
X348359Y158643D01*
X348416Y158810D01*
X348477Y158975D01*
X348543Y159139D01*
X348612Y159301D01*
X348686Y159462D01*
X348763Y159620D01*
X348844Y159777D01*
X348929Y159931D01*
X349018Y160083D01*
X349111Y160233D01*
X349207Y160381D01*
X349306Y160527D01*
X349410Y160670D01*
X349517Y160810D01*
X349627Y160947D01*
X349740Y161082D01*
X349857Y161214D01*
X349977Y161344D01*
X350100Y161470D01*
X350226Y161593D01*
X350356Y161713D01*
X350488Y161830D01*
X350623Y161943D01*
X350760Y162053D01*
X350900Y162160D01*
X351043Y162264D01*
X351189Y162363D01*
X351337Y162459D01*
X351487Y162552D01*
X351639Y162641D01*
X351793Y162726D01*
X351950Y162807D01*
X352108Y162884D01*
X352269Y162958D01*
X352431Y163027D01*
X352595Y163093D01*
X352760Y163154D01*
X352927Y163211D01*
X353095Y163265D01*
X353264Y163314D01*
X353434Y163359D01*
X353606Y163399D01*
X353778Y163436D01*
X353952Y163468D01*
X354126Y163496D01*
X354301Y163520D01*
X354476Y163539D01*
X354652Y163555D01*
X354827Y163565D01*
X355004Y163572D01*
X355180Y163574D01*
X355356Y163572D01*
X355533Y163565D01*
X355708Y163555D01*
X355884Y163539D01*
X356059Y163520D01*
X356234Y163496D01*
X356408Y163468D01*
X356582Y163436D01*
X356754Y163399D01*
X356926Y163359D01*
X357096Y163314D01*
X357265Y163265D01*
X357433Y163211D01*
X357600Y163154D01*
X357765Y163093D01*
X357929Y163027D01*
X358091Y162958D01*
X358252Y162884D01*
X358410Y162807D01*
X358567Y162726D01*
X358721Y162641D01*
X358873Y162552D01*
X359023Y162459D01*
X359171Y162363D01*
X359317Y162264D01*
X359460Y162160D01*
X359600Y162053D01*
X359737Y161943D01*
X359872Y161830D01*
X360004Y161713D01*
X360134Y161593D01*
X360260Y161470D01*
X360383Y161344D01*
X360503Y161214D01*
X360620Y161082D01*
X360733Y160947D01*
X360843Y160810D01*
X360950Y160670D01*
X361054Y160527D01*
X361153Y160381D01*
X361249Y160233D01*
X361342Y160083D01*
X361431Y159931D01*
X361516Y159777D01*
X361597Y159620D01*
X361674Y159462D01*
X361748Y159301D01*
X361817Y159139D01*
X361883Y158975D01*
X361944Y158810D01*
X362001Y158643D01*
X362055Y158475D01*
X362104Y158306D01*
X362149Y158136D01*
X362189Y157964D01*
X362226Y157792D01*
X362258Y157618D01*
X362286Y157444D01*
X362310Y157269D01*
X362329Y157094D01*
X362345Y156918D01*
X362355Y156743D01*
X362362Y156566D01*
X362364Y156390D01*
X362362Y156214D01*
X362355Y156037D01*
X362345Y155862D01*
X362329Y155686D01*
X362310Y155511D01*
X362286Y155336D01*
X362258Y155162D01*
X362226Y154988D01*
X362189Y154816D01*
X362149Y154644D01*
X362104Y154474D01*
X362055Y154305D01*
X362001Y154137D01*
X361944Y153970D01*
X361883Y153805D01*
X361817Y153641D01*
X361748Y153479D01*
X361674Y153318D01*
X361597Y153160D01*
X361516Y153003D01*
X361431Y152849D01*
X361342Y152697D01*
X361249Y152547D01*
X361153Y152399D01*
X361054Y152253D01*
X360950Y152110D01*
X360843Y151970D01*
X360733Y151833D01*
X360620Y151698D01*
X360503Y151566D01*
X360383Y151436D01*
X360260Y151310D01*
X360134Y151187D01*
X360004Y151067D01*
X359872Y150950D01*
X359737Y150837D01*
X359600Y150727D01*
X359460Y150620D01*
X359317Y150516D01*
X359171Y150417D01*
X359023Y150321D01*
X358873Y150228D01*
X358721Y150139D01*
X358567Y150054D01*
X358410Y149973D01*
X358252Y149896D01*
X358091Y149822D01*
X357929Y149753D01*
X357765Y149687D01*
X357600Y149626D01*
X357433Y149569D01*
X357265Y149515D01*
X357096Y149466D01*
X356926Y149421D01*
X356754Y149381D01*
X356582Y149344D01*
X356408Y149312D01*
X356234Y149284D01*
X356059Y149260D01*
X355884Y149241D01*
X355708Y149225D01*
X355533Y149215D01*
X355356Y149208D01*
X355180Y149206D01*
X355004Y149208D01*
X354827Y149215D01*
X354652Y149225D01*
X354476Y149241D01*
X354301Y149260D01*
X354126Y149284D01*
X353952Y149312D01*
X353778Y149344D01*
X353606Y149381D01*
X353434Y149421D01*
X353264Y149466D01*
X353095Y149515D01*
X352927Y149569D01*
X352760Y149626D01*
X352595Y149687D01*
X352431Y149753D01*
X352269Y149822D01*
X352108Y149896D01*
X351950Y149973D01*
X351793Y150054D01*
X351639Y150139D01*
X351487Y150228D01*
X351337Y150321D01*
X351189Y150417D01*
X351043Y150516D01*
X350900Y150620D01*
X350760Y150727D01*
X350623Y150837D01*
X350488Y150950D01*
X350356Y151067D01*
X350226Y151187D01*
X350100Y151310D01*
X349977Y151436D01*
X349857Y151566D01*
X349740Y151698D01*
X349627Y151833D01*
X349517Y151970D01*
X349410Y152110D01*
X349306Y152253D01*
X349207Y152399D01*
X349111Y152547D01*
X349018Y152697D01*
X348929Y152849D01*
X348844Y153003D01*
X348763Y153160D01*
X348686Y153318D01*
X348612Y153479D01*
X348543Y153641D01*
X348477Y153805D01*
X348416Y153970D01*
X348359Y154137D01*
X348305Y154305D01*
X348256Y154474D01*
X348211Y154644D01*
X348171Y154816D01*
X348134Y154988D01*
X348102Y155162D01*
X348074Y155336D01*
X348050Y155511D01*
X348031Y155686D01*
X348015Y155862D01*
X348005Y156037D01*
X347998Y156214D01*
X347996Y156390D01*
D12*
X327882Y73721D02*
X320255Y73721D01*
X327882Y73721D02*
X331695Y77534D01*
X327882Y81348D01*
X320255Y81348D01*
X325975Y81348D02*
X325975Y73721D01*
X320255Y89228D02*
X331695Y89228D01*
X331695Y85415D02*
X331695Y93042D01*
X331695Y100922D02*
X320255Y100922D01*
X331695Y97109D02*
X331695Y104736D01*
X320255Y108803D02*
X320255Y112616D01*
X320255Y110710D02*
X331695Y110710D01*
X331695Y112616D02*
X331695Y108803D01*
X331695Y116599D02*
X320255Y116599D01*
X320255Y124225D02*
X331695Y116599D01*
X331695Y124225D02*
X320255Y124225D01*
X329788Y128293D02*
X331695Y128293D01*
X329788Y128293D02*
X325975Y132106D01*
X329788Y135919D01*
X331695Y135919D01*
X325975Y132106D02*
X320255Y132106D01*
X329788Y139987D02*
X331695Y141894D01*
X331695Y145707D01*
X329788Y147613D01*
X327882Y147613D01*
X325975Y145707D01*
X324068Y147613D01*
X322162Y147613D01*
X320255Y145707D01*
X320255Y141894D01*
X322162Y139987D01*
X324068Y139987D01*
X325975Y141894D01*
X327882Y139987D01*
X329788Y139987D01*
X325975Y141894D02*
X325975Y145707D01*
X331695Y151681D02*
X331695Y159307D01*
X331695Y151681D02*
X325975Y151681D01*
X327882Y155494D01*
X327882Y157401D01*
X325975Y159307D01*
X322162Y159307D01*
X320255Y157401D01*
X320255Y153587D01*
X322162Y151681D01*
M02*
