<?xml version="1.0" encoding="utf-8"?>
<!-- Generator: Adobe Illustrator 24.2.1, SVG Export Plug-In . SVG Version: 6.00 Build 0)  -->
<svg version="1.1" id="Layer_1" xmlns="http://www.w3.org/2000/svg" xmlns:xlink="http://www.w3.org/1999/xlink" x="0px" y="0px"
	 viewBox="0 0 591.87 519.14" style="enable-background:new 0 0 591.87 519.14;" xml:space="preserve">
<style type="text/css">
	.st0{fill:none;stroke:#000000;stroke-width:0.36;stroke-linecap:round;stroke-linejoin:round;stroke-miterlimit:10;}
	.st1{fill:none;stroke:#000000;stroke-width:0;stroke-linecap:round;stroke-linejoin:round;stroke-miterlimit:10;}
	.st2{fill-rule:evenodd;clip-rule:evenodd;fill:#FFFFFF;}
	.st3{fill:none;stroke:#000000;stroke-width:0.06;stroke-linecap:square;stroke-linejoin:bevel;stroke-miterlimit:10;}
	.st4{fill:none;stroke:#000000;stroke-width:3.78;stroke-linecap:round;stroke-linejoin:round;stroke-miterlimit:10;}
	.st5{fill-rule:evenodd;clip-rule:evenodd;}
	.st6{fill-rule:evenodd;clip-rule:evenodd;stroke:#000000;stroke-miterlimit:10;}
	.st7{fill:none;stroke:#000000;stroke-width:1.44;stroke-linecap:round;stroke-linejoin:round;stroke-miterlimit:10;}
	.st8{fill:none;stroke:#000000;stroke-width:0.72;stroke-linecap:round;stroke-linejoin:round;stroke-miterlimit:10;}
</style>
<line class="st0" x1="144.94" y1="481.4" x2="144.94" y2="481.04"/>
<line class="st0" x1="144.94" y1="481.04" x2="147.1" y2="481.04"/>
<line class="st0" x1="147.1" y1="481.04" x2="152.14" y2="476"/>
<line class="st0" x1="152.14" y1="476" x2="152.14" y2="469.52"/>
<line class="st0" x1="152.14" y1="469.52" x2="146.38" y2="463.76"/>
<line class="st0" x1="146.38" y1="463.76" x2="144.94" y2="463.76"/>
<line class="st0" x1="144.94" y1="463.76" x2="144.94" y2="463.4"/>
<line class="st0" x1="144.94" y1="463.4" x2="164.74" y2="463.4"/>
<line class="st0" x1="164.74" y1="463.4" x2="164.74" y2="481.4"/>
<line class="st0" x1="164.74" y1="481.4" x2="144.94" y2="481.4"/>
<line class="st0" x1="144.94" y1="481.28" x2="164.74" y2="481.28"/>
<line class="st0" x1="144.94" y1="481.04" x2="164.74" y2="481.04"/>
<line class="st0" x1="147.34" y1="480.74" x2="164.74" y2="480.74"/>
<line class="st0" x1="147.64" y1="480.5" x2="164.74" y2="480.5"/>
<line class="st0" x1="147.88" y1="480.2" x2="164.74" y2="480.2"/>
<line class="st0" x1="148.18" y1="479.96" x2="164.74" y2="479.96"/>
<line class="st0" x1="148.42" y1="479.66" x2="164.74" y2="479.66"/>
<line class="st0" x1="148.72" y1="479.42" x2="164.74" y2="479.42"/>
<line class="st0" x1="148.96" y1="479.12" x2="164.74" y2="479.12"/>
<line class="st0" x1="149.26" y1="478.88" x2="164.74" y2="478.88"/>
<line class="st0" x1="149.5" y1="478.58" x2="164.74" y2="478.58"/>
<line class="st0" x1="149.8" y1="478.34" x2="164.74" y2="478.34"/>
<line class="st0" x1="150.04" y1="478.04" x2="164.74" y2="478.04"/>
<line class="st0" x1="150.34" y1="477.8" x2="164.74" y2="477.8"/>
<line class="st0" x1="150.58" y1="477.5" x2="164.74" y2="477.5"/>
<line class="st0" x1="150.88" y1="477.26" x2="164.74" y2="477.26"/>
<line class="st0" x1="151.12" y1="476.96" x2="164.74" y2="476.96"/>
<line class="st0" x1="151.42" y1="476.72" x2="164.74" y2="476.72"/>
<line class="st0" x1="151.66" y1="476.42" x2="164.74" y2="476.42"/>
<line class="st0" x1="151.9" y1="476.18" x2="164.74" y2="476.18"/>
<line class="st0" x1="152.14" y1="475.94" x2="164.74" y2="475.94"/>
<line class="st0" x1="152.14" y1="475.64" x2="164.74" y2="475.64"/>
<line class="st0" x1="152.14" y1="475.4" x2="164.74" y2="475.4"/>
<line class="st0" x1="152.14" y1="475.1" x2="164.74" y2="475.1"/>
<line class="st0" x1="152.14" y1="474.86" x2="164.74" y2="474.86"/>
<line class="st0" x1="152.14" y1="474.56" x2="164.74" y2="474.56"/>
<line class="st0" x1="152.14" y1="474.32" x2="164.74" y2="474.32"/>
<line class="st0" x1="152.14" y1="474.02" x2="164.74" y2="474.02"/>
<line class="st0" x1="152.14" y1="473.78" x2="164.74" y2="473.78"/>
<line class="st0" x1="152.14" y1="473.48" x2="164.74" y2="473.48"/>
<line class="st0" x1="152.14" y1="473.24" x2="164.74" y2="473.24"/>
<line class="st0" x1="152.14" y1="472.94" x2="164.74" y2="472.94"/>
<line class="st0" x1="152.14" y1="472.7" x2="164.74" y2="472.7"/>
<line class="st0" x1="152.14" y1="472.4" x2="164.74" y2="472.4"/>
<line class="st0" x1="152.14" y1="472.16" x2="164.74" y2="472.16"/>
<line class="st0" x1="152.14" y1="471.86" x2="164.74" y2="471.86"/>
<line class="st0" x1="152.14" y1="471.62" x2="164.74" y2="471.62"/>
<line class="st0" x1="152.14" y1="471.32" x2="164.74" y2="471.32"/>
<line class="st0" x1="152.14" y1="471.08" x2="164.74" y2="471.08"/>
<line class="st0" x1="152.14" y1="470.78" x2="164.74" y2="470.78"/>
<line class="st0" x1="152.14" y1="470.54" x2="164.74" y2="470.54"/>
<line class="st0" x1="152.14" y1="470.24" x2="164.74" y2="470.24"/>
<line class="st0" x1="152.14" y1="470" x2="164.74" y2="470"/>
<line class="st0" x1="152.14" y1="469.7" x2="164.74" y2="469.7"/>
<line class="st0" x1="152.02" y1="469.46" x2="164.74" y2="469.46"/>
<line class="st0" x1="151.78" y1="469.16" x2="164.74" y2="469.16"/>
<line class="st0" x1="151.48" y1="468.92" x2="164.74" y2="468.92"/>
<line class="st0" x1="151.24" y1="468.62" x2="164.74" y2="468.62"/>
<line class="st0" x1="150.94" y1="468.38" x2="164.74" y2="468.38"/>
<line class="st0" x1="150.7" y1="468.08" x2="164.74" y2="468.08"/>
<line class="st0" x1="150.4" y1="467.84" x2="164.74" y2="467.84"/>
<line class="st0" x1="150.16" y1="467.54" x2="164.74" y2="467.54"/>
<line class="st0" x1="149.86" y1="467.3" x2="164.74" y2="467.3"/>
<line class="st0" x1="149.62" y1="467" x2="164.74" y2="467"/>
<line class="st0" x1="149.32" y1="466.76" x2="164.74" y2="466.76"/>
<line class="st0" x1="149.08" y1="466.46" x2="164.74" y2="466.46"/>
<line class="st0" x1="148.78" y1="466.22" x2="164.74" y2="466.22"/>
<line class="st0" x1="148.54" y1="465.92" x2="164.74" y2="465.92"/>
<line class="st0" x1="148.24" y1="465.68" x2="164.74" y2="465.68"/>
<line class="st0" x1="148" y1="465.38" x2="164.74" y2="465.38"/>
<line class="st0" x1="147.7" y1="465.14" x2="164.74" y2="465.14"/>
<line class="st0" x1="147.46" y1="464.84" x2="164.74" y2="464.84"/>
<line class="st0" x1="147.16" y1="464.6" x2="164.74" y2="464.6"/>
<line class="st0" x1="146.92" y1="464.3" x2="164.74" y2="464.3"/>
<line class="st0" x1="146.62" y1="464.06" x2="164.74" y2="464.06"/>
<line class="st0" x1="146.38" y1="463.76" x2="164.74" y2="463.76"/>
<line class="st0" x1="144.94" y1="463.52" x2="164.74" y2="463.52"/>
<line class="st0" x1="144.94" y1="513.74" x2="144.94" y2="513.38"/>
<line class="st0" x1="144.94" y1="513.38" x2="147.1" y2="513.38"/>
<line class="st0" x1="147.1" y1="513.38" x2="152.14" y2="508.34"/>
<line class="st0" x1="152.14" y1="508.34" x2="152.14" y2="501.86"/>
<line class="st0" x1="152.14" y1="501.86" x2="146.38" y2="496.1"/>
<line class="st0" x1="146.38" y1="496.1" x2="144.94" y2="496.1"/>
<line class="st0" x1="144.94" y1="496.1" x2="144.94" y2="495.74"/>
<line class="st0" x1="144.94" y1="495.74" x2="164.74" y2="495.74"/>
<line class="st0" x1="164.74" y1="495.74" x2="164.74" y2="513.74"/>
<line class="st0" x1="164.74" y1="513.74" x2="144.94" y2="513.74"/>
<line class="st0" x1="144.94" y1="513.68" x2="164.74" y2="513.68"/>
<line class="st0" x1="144.94" y1="513.38" x2="164.74" y2="513.38"/>
<line class="st0" x1="147.34" y1="513.14" x2="164.74" y2="513.14"/>
<line class="st0" x1="147.64" y1="512.84" x2="164.74" y2="512.84"/>
<line class="st0" x1="147.88" y1="512.6" x2="164.74" y2="512.6"/>
<line class="st0" x1="148.18" y1="512.3" x2="164.74" y2="512.3"/>
<line class="st0" x1="148.42" y1="512.06" x2="164.74" y2="512.06"/>
<line class="st0" x1="148.72" y1="511.76" x2="164.74" y2="511.76"/>
<line class="st0" x1="148.96" y1="511.52" x2="164.74" y2="511.52"/>
<line class="st0" x1="149.26" y1="511.22" x2="164.74" y2="511.22"/>
<line class="st0" x1="149.5" y1="510.98" x2="164.74" y2="510.98"/>
<line class="st0" x1="149.8" y1="510.68" x2="164.74" y2="510.68"/>
<line class="st0" x1="150.04" y1="510.44" x2="164.74" y2="510.44"/>
<line class="st0" x1="150.34" y1="510.14" x2="164.74" y2="510.14"/>
<line class="st0" x1="150.58" y1="509.9" x2="164.74" y2="509.9"/>
<line class="st0" x1="150.88" y1="509.6" x2="164.74" y2="509.6"/>
<line class="st0" x1="151.12" y1="509.36" x2="164.74" y2="509.36"/>
<line class="st0" x1="151.42" y1="509.06" x2="164.74" y2="509.06"/>
<line class="st0" x1="151.66" y1="508.82" x2="164.74" y2="508.82"/>
<line class="st0" x1="151.96" y1="508.52" x2="164.74" y2="508.52"/>
<line class="st0" x1="152.14" y1="508.28" x2="164.74" y2="508.28"/>
<line class="st0" x1="152.14" y1="507.98" x2="164.74" y2="507.98"/>
<line class="st0" x1="152.14" y1="507.74" x2="164.74" y2="507.74"/>
<line class="st0" x1="152.14" y1="507.44" x2="164.74" y2="507.44"/>
<line class="st0" x1="152.14" y1="507.2" x2="164.74" y2="507.2"/>
<line class="st0" x1="152.14" y1="506.9" x2="164.74" y2="506.9"/>
<line class="st0" x1="152.14" y1="506.66" x2="164.74" y2="506.66"/>
<line class="st0" x1="152.14" y1="506.36" x2="164.74" y2="506.36"/>
<line class="st0" x1="152.14" y1="506.12" x2="164.74" y2="506.12"/>
<line class="st0" x1="152.14" y1="505.82" x2="164.74" y2="505.82"/>
<line class="st0" x1="152.14" y1="505.58" x2="164.74" y2="505.58"/>
<line class="st0" x1="152.14" y1="505.28" x2="164.74" y2="505.28"/>
<line class="st0" x1="152.14" y1="505.04" x2="164.74" y2="505.04"/>
<line class="st0" x1="152.14" y1="504.74" x2="164.74" y2="504.74"/>
<line class="st0" x1="152.14" y1="504.5" x2="164.74" y2="504.5"/>
<line class="st0" x1="152.14" y1="504.2" x2="164.74" y2="504.2"/>
<line class="st0" x1="152.14" y1="503.96" x2="164.74" y2="503.96"/>
<line class="st0" x1="152.14" y1="503.66" x2="164.74" y2="503.66"/>
<line class="st0" x1="152.14" y1="503.42" x2="164.74" y2="503.42"/>
<line class="st0" x1="152.14" y1="503.12" x2="164.74" y2="503.12"/>
<line class="st0" x1="152.14" y1="502.88" x2="164.74" y2="502.88"/>
<line class="st0" x1="152.14" y1="502.58" x2="164.74" y2="502.58"/>
<line class="st0" x1="152.14" y1="502.34" x2="164.74" y2="502.34"/>
<line class="st0" x1="152.14" y1="502.04" x2="164.74" y2="502.04"/>
<line class="st0" x1="152.02" y1="501.8" x2="164.74" y2="501.8"/>
<line class="st0" x1="151.78" y1="501.5" x2="164.74" y2="501.5"/>
<line class="st0" x1="151.48" y1="501.26" x2="164.74" y2="501.26"/>
<line class="st0" x1="151.24" y1="500.96" x2="164.74" y2="500.96"/>
<line class="st0" x1="150.94" y1="500.72" x2="164.74" y2="500.72"/>
<line class="st0" x1="150.7" y1="500.42" x2="164.74" y2="500.42"/>
<line class="st0" x1="150.4" y1="500.18" x2="164.74" y2="500.18"/>
<line class="st0" x1="150.16" y1="499.88" x2="164.74" y2="499.88"/>
<line class="st0" x1="149.86" y1="499.64" x2="164.74" y2="499.64"/>
<line class="st0" x1="149.62" y1="499.34" x2="164.74" y2="499.34"/>
<line class="st0" x1="149.32" y1="499.1" x2="164.74" y2="499.1"/>
<line class="st0" x1="149.08" y1="498.8" x2="164.74" y2="498.8"/>
<line class="st0" x1="148.78" y1="498.56" x2="164.74" y2="498.56"/>
<line class="st0" x1="148.54" y1="498.32" x2="164.74" y2="498.32"/>
<line class="st0" x1="148.24" y1="498.02" x2="164.74" y2="498.02"/>
<line class="st0" x1="148" y1="497.78" x2="164.74" y2="497.78"/>
<line class="st0" x1="147.7" y1="497.48" x2="164.74" y2="497.48"/>
<line class="st0" x1="147.46" y1="497.24" x2="164.74" y2="497.24"/>
<line class="st0" x1="147.16" y1="496.94" x2="164.74" y2="496.94"/>
<line class="st0" x1="146.92" y1="496.7" x2="164.74" y2="496.7"/>
<line class="st0" x1="146.62" y1="496.4" x2="164.74" y2="496.4"/>
<line class="st0" x1="146.38" y1="496.16" x2="164.74" y2="496.16"/>
<line class="st0" x1="144.94" y1="495.86" x2="164.74" y2="495.86"/>
<polygon points="114.88,477.68 113.44,479.12 111.4,479.12 109.96,477.68 109.96,475.64 111.4,474.2 113.44,474.2 114.88,475.64 "/>
<polygon class="st1" points="114.88,477.68 113.44,479.12 111.4,479.12 109.96,477.68 109.96,475.64 111.4,474.2 113.44,474.2 
	114.88,475.64 "/>
<path class="st2" d="M113.56,476.66c0,0.63-0.51,1.14-1.14,1.14s-1.14-0.51-1.14-1.14c0-0.63,0.51-1.14,1.14-1.14
	S113.56,476.03,113.56,476.66z"/>
<path class="st3" d="M113.56,476.66c0,0.63-0.51,1.14-1.14,1.14s-1.14-0.51-1.14-1.14c0-0.63,0.51-1.14,1.14-1.14
	S113.56,476.03,113.56,476.66z"/>
<polygon points="114.88,484.88 113.44,486.32 111.4,486.32 109.96,484.88 109.96,482.84 111.4,481.4 113.44,481.4 114.88,482.84 "/>
<polygon class="st1" points="114.88,484.88 113.44,486.32 111.4,486.32 109.96,484.88 109.96,482.84 111.4,481.4 113.44,481.4 
	114.88,482.84 "/>
<path class="st2" d="M113.56,483.86c0,0.63-0.51,1.14-1.14,1.14s-1.14-0.51-1.14-1.14s0.51-1.14,1.14-1.14
	S113.56,483.23,113.56,483.86z"/>
<path class="st3" d="M113.56,483.86c0,0.63-0.51,1.14-1.14,1.14s-1.14-0.51-1.14-1.14s0.51-1.14,1.14-1.14
	S113.56,483.23,113.56,483.86z"/>
<polygon points="114.88,492.08 113.44,493.52 111.4,493.52 109.96,492.08 109.96,490.04 111.4,488.6 113.44,488.6 114.88,490.04 "/>
<polygon class="st1" points="114.88,492.08 113.44,493.52 111.4,493.52 109.96,492.08 109.96,490.04 111.4,488.6 113.44,488.6 
	114.88,490.04 "/>
<path class="st2" d="M113.56,491.06c0,0.63-0.51,1.14-1.14,1.14s-1.14-0.51-1.14-1.14c0-0.63,0.51-1.14,1.14-1.14
	S113.56,490.43,113.56,491.06z"/>
<path class="st3" d="M113.56,491.06c0,0.63-0.51,1.14-1.14,1.14s-1.14-0.51-1.14-1.14c0-0.63,0.51-1.14,1.14-1.14
	S113.56,490.43,113.56,491.06z"/>
<polygon points="114.88,499.28 113.44,500.72 111.4,500.72 109.96,499.28 109.96,497.24 111.4,495.8 113.44,495.8 114.88,497.24 "/>
<polygon class="st1" points="114.88,499.28 113.44,500.72 111.4,500.72 109.96,499.28 109.96,497.24 111.4,495.8 113.44,495.8 
	114.88,497.24 "/>
<path class="st2" d="M113.56,498.26c0,0.63-0.51,1.14-1.14,1.14s-1.14-0.51-1.14-1.14c0-0.63,0.51-1.14,1.14-1.14
	S113.56,497.63,113.56,498.26z"/>
<path class="st3" d="M113.56,498.26c0,0.63-0.51,1.14-1.14,1.14s-1.14-0.51-1.14-1.14c0-0.63,0.51-1.14,1.14-1.14
	S113.56,497.63,113.56,498.26z"/>
<polygon points="93.28,499.28 91.84,500.72 89.8,500.72 88.36,499.28 88.36,497.24 89.8,495.8 91.84,495.8 93.28,497.24 "/>
<polygon class="st1" points="93.28,499.28 91.84,500.72 89.8,500.72 88.36,499.28 88.36,497.24 89.8,495.8 91.84,495.8 
	93.28,497.24 "/>
<path class="st2" d="M91.96,498.26c0,0.63-0.51,1.14-1.14,1.14c-0.63,0-1.14-0.51-1.14-1.14c0-0.63,0.51-1.14,1.14-1.14
	C91.45,497.12,91.96,497.63,91.96,498.26z"/>
<path class="st3" d="M91.96,498.26c0,0.63-0.51,1.14-1.14,1.14c-0.63,0-1.14-0.51-1.14-1.14c0-0.63,0.51-1.14,1.14-1.14
	C91.45,497.12,91.96,497.63,91.96,498.26z"/>
<polygon points="93.28,492.08 91.84,493.52 89.8,493.52 88.36,492.08 88.36,490.04 89.8,488.6 91.84,488.6 93.28,490.04 "/>
<polygon class="st1" points="93.28,492.08 91.84,493.52 89.8,493.52 88.36,492.08 88.36,490.04 89.8,488.6 91.84,488.6 
	93.28,490.04 "/>
<path class="st2" d="M91.96,491.06c0,0.63-0.51,1.14-1.14,1.14c-0.63,0-1.14-0.51-1.14-1.14c0-0.63,0.51-1.14,1.14-1.14
	C91.45,489.92,91.96,490.43,91.96,491.06z"/>
<path class="st3" d="M91.96,491.06c0,0.63-0.51,1.14-1.14,1.14c-0.63,0-1.14-0.51-1.14-1.14c0-0.63,0.51-1.14,1.14-1.14
	C91.45,489.92,91.96,490.43,91.96,491.06z"/>
<polygon points="93.28,484.88 91.84,486.32 89.8,486.32 88.36,484.88 88.36,482.84 89.8,481.4 91.84,481.4 93.28,482.84 "/>
<polygon class="st1" points="93.28,484.88 91.84,486.32 89.8,486.32 88.36,484.88 88.36,482.84 89.8,481.4 91.84,481.4 
	93.28,482.84 "/>
<path class="st2" d="M91.96,483.86c0,0.63-0.51,1.14-1.14,1.14c-0.63,0-1.14-0.51-1.14-1.14s0.51-1.14,1.14-1.14
	C91.45,482.72,91.96,483.23,91.96,483.86z"/>
<path class="st3" d="M91.96,483.86c0,0.63-0.51,1.14-1.14,1.14c-0.63,0-1.14-0.51-1.14-1.14s0.51-1.14,1.14-1.14
	C91.45,482.72,91.96,483.23,91.96,483.86z"/>
<polygon points="93.28,477.68 91.84,479.12 89.8,479.12 88.36,477.68 88.36,475.64 89.8,474.2 91.84,474.2 93.28,475.64 "/>
<polygon class="st1" points="93.28,477.68 91.84,479.12 89.8,479.12 88.36,477.68 88.36,475.64 89.8,474.2 91.84,474.2 
	93.28,475.64 "/>
<path class="st2" d="M91.96,476.66c0,0.63-0.51,1.14-1.14,1.14c-0.63,0-1.14-0.51-1.14-1.14c0-0.63,0.51-1.14,1.14-1.14
	C91.45,475.52,91.96,476.03,91.96,476.66z"/>
<path class="st3" d="M91.96,476.66c0,0.63-0.51,1.14-1.14,1.14c-0.63,0-1.14-0.51-1.14-1.14c0-0.63,0.51-1.14,1.14-1.14
	C91.45,475.52,91.96,476.03,91.96,476.66z"/>
<line class="st4" x1="43.84" y1="493.76" x2="43.84" y2="491.9"/>
<path class="st2" d="M44.98,492.86c0,0.63-0.51,1.14-1.14,1.14c-0.63,0-1.14-0.51-1.14-1.14s0.51-1.14,1.14-1.14
	C44.47,491.72,44.98,492.23,44.98,492.86z"/>
<path class="st3" d="M44.98,492.86c0,0.63-0.51,1.14-1.14,1.14c-0.63,0-1.14-0.51-1.14-1.14s0.51-1.14,1.14-1.14
	C44.47,491.72,44.98,492.23,44.98,492.86z"/>
<line class="st4" x1="43.84" y1="465.02" x2="43.84" y2="463.16"/>
<path class="st2" d="M44.98,464.06c0,0.63-0.51,1.14-1.14,1.14c-0.63,0-1.14-0.51-1.14-1.14c0-0.63,0.51-1.14,1.14-1.14
	C44.47,462.92,44.98,463.43,44.98,464.06z"/>
<path class="st3" d="M44.98,464.06c0,0.63-0.51,1.14-1.14,1.14c-0.63,0-1.14-0.51-1.14-1.14c0-0.63,0.51-1.14,1.14-1.14
	C44.47,462.92,44.98,463.43,44.98,464.06z"/>
<line class="st4" x1="34.36" y1="493.76" x2="34.36" y2="491.9"/>
<path class="st2" d="M35.5,492.86c0,0.63-0.51,1.14-1.14,1.14s-1.14-0.51-1.14-1.14s0.51-1.14,1.14-1.14S35.5,492.23,35.5,492.86z"
	/>
<path class="st3" d="M35.5,492.86c0,0.63-0.51,1.14-1.14,1.14s-1.14-0.51-1.14-1.14s0.51-1.14,1.14-1.14S35.5,492.23,35.5,492.86z"
	/>
<line class="st4" x1="34.36" y1="465.02" x2="34.36" y2="463.16"/>
<path class="st2" d="M35.5,464.06c0,0.63-0.51,1.14-1.14,1.14s-1.14-0.51-1.14-1.14c0-0.63,0.51-1.14,1.14-1.14
	S35.5,463.43,35.5,464.06z"/>
<path class="st3" d="M35.5,464.06c0,0.63-0.51,1.14-1.14,1.14s-1.14-0.51-1.14-1.14c0-0.63,0.51-1.14,1.14-1.14
	S35.5,463.43,35.5,464.06z"/>
<ellipse transform="matrix(0.2298 -0.9732 0.9732 0.2298 -418.8929 424.7481)" class="st5" cx="58.9" cy="477.02" rx="2.64" ry="2.64"/>
<ellipse transform="matrix(0.2298 -0.9732 0.9732 0.2298 -418.8929 424.7481)" class="st1" cx="58.9" cy="477.02" rx="2.64" ry="2.64"/>
<path class="st2" d="M60.16,477.02c0,0.7-0.56,1.26-1.26,1.26s-1.26-0.56-1.26-1.26s0.56-1.26,1.26-1.26S60.16,476.33,60.16,477.02z
	"/>
<path class="st3" d="M60.16,477.02c0,0.7-0.56,1.26-1.26,1.26s-1.26-0.56-1.26-1.26s0.56-1.26,1.26-1.26S60.16,476.33,60.16,477.02z
	"/>
<ellipse transform="matrix(0.2298 -0.9732 0.9732 0.2298 -402.2556 445.7703)" class="st5" cx="80.5" cy="477.02" rx="2.64" ry="2.64"/>
<ellipse transform="matrix(0.2298 -0.9732 0.9732 0.2298 -402.2556 445.7703)" class="st1" cx="80.5" cy="477.02" rx="2.64" ry="2.64"/>
<path class="st2" d="M81.76,477.02c0,0.7-0.56,1.26-1.26,1.26c-0.7,0-1.26-0.56-1.26-1.26s0.56-1.26,1.26-1.26
	C81.2,475.76,81.76,476.33,81.76,477.02z"/>
<path class="st3" d="M81.76,477.02c0,0.7-0.56,1.26-1.26,1.26c-0.7,0-1.26-0.56-1.26-1.26s0.56-1.26,1.26-1.26
	C81.2,475.76,81.76,476.33,81.76,477.02z"/>
<ellipse transform="matrix(0.2298 -0.9732 0.9732 0.2298 -410.776 418.3242)" class="st5" cx="58.9" cy="468.68" rx="2.64" ry="2.64"/>
<ellipse transform="matrix(0.2298 -0.9732 0.9732 0.2298 -410.776 418.3242)" class="st1" cx="58.9" cy="468.68" rx="2.64" ry="2.64"/>
<path class="st2" d="M60.16,468.68c0,0.7-0.56,1.26-1.26,1.26s-1.26-0.56-1.26-1.26s0.56-1.26,1.26-1.26S60.16,467.99,60.16,468.68z
	"/>
<path class="st3" d="M60.16,468.68c0,0.7-0.56,1.26-1.26,1.26s-1.26-0.56-1.26-1.26s0.56-1.26,1.26-1.26S60.16,467.99,60.16,468.68z
	"/>
<ellipse transform="matrix(0.2298 -0.9732 0.9732 0.2298 -394.1387 439.3464)" class="st5" cx="80.5" cy="468.68" rx="2.64" ry="2.64"/>
<ellipse transform="matrix(0.2298 -0.9732 0.9732 0.2298 -394.1387 439.3464)" class="st1" cx="80.5" cy="468.68" rx="2.64" ry="2.64"/>
<path class="st2" d="M81.76,468.68c0,0.7-0.56,1.26-1.26,1.26c-0.7,0-1.26-0.56-1.26-1.26s0.56-1.26,1.26-1.26
	C81.2,467.42,81.76,467.99,81.76,468.68z"/>
<path class="st3" d="M81.76,468.68c0,0.7-0.56,1.26-1.26,1.26c-0.7,0-1.26-0.56-1.26-1.26s0.56-1.26,1.26-1.26
	C81.2,467.42,81.76,467.99,81.76,468.68z"/>
<ellipse transform="matrix(0.2298 -0.9732 0.9732 0.2298 -434.9515 437.4572)" class="st5" cx="58.9" cy="493.52" rx="2.64" ry="2.64"/>
<ellipse transform="matrix(0.2298 -0.9732 0.9732 0.2298 -434.9515 437.4572)" class="st1" cx="58.9" cy="493.52" rx="2.64" ry="2.64"/>
<path class="st2" d="M60.16,493.52c0,0.7-0.56,1.26-1.26,1.26s-1.26-0.56-1.26-1.26s0.56-1.26,1.26-1.26S60.16,492.83,60.16,493.52z
	"/>
<path class="st3" d="M60.16,493.52c0,0.7-0.56,1.26-1.26,1.26s-1.26-0.56-1.26-1.26s0.56-1.26,1.26-1.26S60.16,492.83,60.16,493.52z
	"/>
<ellipse transform="matrix(0.2298 -0.9732 0.9732 0.2298 -418.3142 458.4793)" class="st5" cx="80.5" cy="493.52" rx="2.64" ry="2.64"/>
<ellipse transform="matrix(0.2298 -0.9732 0.9732 0.2298 -418.3142 458.4793)" class="st1" cx="80.5" cy="493.52" rx="2.64" ry="2.64"/>
<path class="st2" d="M81.76,493.52c0,0.7-0.56,1.26-1.26,1.26c-0.7,0-1.26-0.56-1.26-1.26s0.56-1.26,1.26-1.26
	C81.2,492.26,81.76,492.83,81.76,493.52z"/>
<path class="st3" d="M81.76,493.52c0,0.7-0.56,1.26-1.26,1.26c-0.7,0-1.26-0.56-1.26-1.26s0.56-1.26,1.26-1.26
	C81.2,492.26,81.76,492.83,81.76,493.52z"/>
<ellipse transform="matrix(0.2298 -0.9732 0.9732 0.2298 -426.893 431.0795)" class="st5" cx="58.9" cy="485.24" rx="2.64" ry="2.64"/>
<ellipse transform="matrix(0.2298 -0.9732 0.9732 0.2298 -426.893 431.0795)" class="st1" cx="58.9" cy="485.24" rx="2.64" ry="2.64"/>
<path class="st2" d="M60.16,485.24c0,0.7-0.56,1.26-1.26,1.26s-1.26-0.56-1.26-1.26s0.56-1.26,1.26-1.26S60.16,484.55,60.16,485.24z
	"/>
<path class="st3" d="M60.16,485.24c0,0.7-0.56,1.26-1.26,1.26s-1.26-0.56-1.26-1.26s0.56-1.26,1.26-1.26S60.16,484.55,60.16,485.24z
	"/>
<ellipse transform="matrix(0.2298 -0.9732 0.9732 0.2298 -410.2557 452.1017)" class="st5" cx="80.5" cy="485.24" rx="2.64" ry="2.64"/>
<ellipse transform="matrix(0.2298 -0.9732 0.9732 0.2298 -410.2557 452.1017)" class="st1" cx="80.5" cy="485.24" rx="2.64" ry="2.64"/>
<path class="st2" d="M81.76,485.24c0,0.7-0.56,1.26-1.26,1.26c-0.7,0-1.26-0.56-1.26-1.26s0.56-1.26,1.26-1.26
	C81.2,483.98,81.76,484.55,81.76,485.24z"/>
<path class="st3" d="M81.76,485.24c0,0.7-0.56,1.26-1.26,1.26c-0.7,0-1.26-0.56-1.26-1.26s0.56-1.26,1.26-1.26
	C81.2,483.98,81.76,484.55,81.76,485.24z"/>
<circle class="st5" cx="144.94" cy="472.4" r="9.12"/>
<circle class="st1" cx="144.94" cy="472.4" r="9.12"/>
<circle class="st2" cx="144.94" cy="472.4" r="5.64"/>
<circle class="st3" cx="144.94" cy="472.4" r="5.64"/>
<circle class="st5" cx="144.94" cy="504.74" r="9.12"/>
<circle class="st1" cx="144.94" cy="504.74" r="9.12"/>
<circle class="st2" cx="144.94" cy="504.74" r="5.64"/>
<circle class="st3" cx="144.94" cy="504.74" r="5.64"/>
<line class="st4" x1="68.5" y1="504.74" x2="66.64" y2="504.74"/>
<path class="st2" d="M68.68,504.74c0,0.63-0.51,1.14-1.14,1.14c-0.63,0-1.14-0.51-1.14-1.14c0-0.63,0.51-1.14,1.14-1.14
	C68.17,503.6,68.68,504.11,68.68,504.74z"/>
<path class="st3" d="M68.68,504.74c0,0.63-0.51,1.14-1.14,1.14c-0.63,0-1.14-0.51-1.14-1.14c0-0.63,0.51-1.14,1.14-1.14
	C68.17,503.6,68.68,504.11,68.68,504.74z"/>
<line class="st4" x1="39.7" y1="504.74" x2="37.84" y2="504.74"/>
<path class="st2" d="M39.94,504.74c0,0.63-0.51,1.14-1.14,1.14s-1.14-0.51-1.14-1.14c0-0.63,0.51-1.14,1.14-1.14
	S39.94,504.11,39.94,504.74z"/>
<path class="st3" d="M39.94,504.74c0,0.63-0.51,1.14-1.14,1.14s-1.14-0.51-1.14-1.14c0-0.63,0.51-1.14,1.14-1.14
	S39.94,504.11,39.94,504.74z"/>
<line class="st4" x1="68.5" y1="511.94" x2="66.64" y2="511.94"/>
<path class="st2" d="M68.68,511.94c0,0.63-0.51,1.14-1.14,1.14c-0.63,0-1.14-0.51-1.14-1.14s0.51-1.14,1.14-1.14
	C68.17,510.8,68.68,511.31,68.68,511.94z"/>
<path class="st3" d="M68.68,511.94c0,0.63-0.51,1.14-1.14,1.14c-0.63,0-1.14-0.51-1.14-1.14s0.51-1.14,1.14-1.14
	C68.17,510.8,68.68,511.31,68.68,511.94z"/>
<line class="st4" x1="39.7" y1="511.94" x2="37.84" y2="511.94"/>
<path class="st2" d="M39.94,511.94c0,0.63-0.51,1.14-1.14,1.14s-1.14-0.51-1.14-1.14s0.51-1.14,1.14-1.14S39.94,511.31,39.94,511.94
	z"/>
<path class="st3" d="M39.94,511.94c0,0.63-0.51,1.14-1.14,1.14s-1.14-0.51-1.14-1.14s0.51-1.14,1.14-1.14S39.94,511.31,39.94,511.94
	z"/>
<ellipse transform="matrix(0.2298 -0.9732 0.9732 0.2298 -419.4279 486.7121)" class="st5" cx="97.78" cy="508.34" rx="2.76" ry="2.76"/>
<ellipse transform="matrix(0.2298 -0.9732 0.9732 0.2298 -419.4279 486.7121)" class="st1" cx="97.78" cy="508.34" rx="2.76" ry="2.76"/>
<path class="st2" d="M98.92,508.34c0,0.63-0.51,1.14-1.14,1.14c-0.63,0-1.14-0.51-1.14-1.14c0-0.63,0.51-1.14,1.14-1.14
	C98.41,507.2,98.92,507.71,98.92,508.34z"/>
<path class="st3" d="M98.92,508.34c0,0.63-0.51,1.14-1.14,1.14c-0.63,0-1.14-0.51-1.14-1.14c0-0.63,0.51-1.14,1.14-1.14
	C98.41,507.2,98.92,507.71,98.92,508.34z"/>
<ellipse transform="matrix(0.1602 -0.9871 0.9871 0.1602 -413.0086 531.249)" class="st5" cx="105.7" cy="508.34" rx="2.76" ry="2.76"/>
<ellipse transform="matrix(0.1602 -0.9871 0.9871 0.1602 -413.0086 531.249)" class="st1" cx="105.7" cy="508.34" rx="2.76" ry="2.76"/>
<path class="st2" d="M106.84,508.34c0,0.63-0.51,1.14-1.14,1.14c-0.63,0-1.14-0.51-1.14-1.14c0-0.63,0.51-1.14,1.14-1.14
	C106.33,507.2,106.84,507.71,106.84,508.34z"/>
<path class="st3" d="M106.84,508.34c0,0.63-0.51,1.14-1.14,1.14c-0.63,0-1.14-0.51-1.14-1.14c0-0.63,0.51-1.14,1.14-1.14
	C106.33,507.2,106.84,507.71,106.84,508.34z"/>
<path class="st6" d="M2.56,489.33c0-0.19,0.15-0.34,0.33-0.34h31.94c0.18,0,0.33,0.15,0.33,0.34v6.06c0,0.19-0.15,0.34-0.33,0.34
	H2.89c-0.18,0-0.33-0.15-0.33-0.34V489.33z"/>
<path class="st6" d="M3.97,483.32c0-0.11,0.06-0.19,0.13-0.19h25.57c0.07,0,0.13,0.09,0.13,0.19v3.48c0,0.11-0.06,0.19-0.13,0.19
	H4.1c-0.07,0-0.13-0.09-0.13-0.19V483.32z"/>
<path class="st6" d="M3.97,477.23c0-0.11,0.06-0.21,0.13-0.21h26.37c0.07,0,0.13,0.09,0.13,0.21v3.73c0,0.11-0.06,0.21-0.13,0.21
	H4.11c-0.07,0-0.13-0.09-0.13-0.21V477.23z"/>
<path class="st6" d="M2.56,469.6c0-0.12,0.14-0.22,0.32-0.22h30.97c0.17,0,0.32,0.1,0.32,0.22v4c0,0.12-0.14,0.22-0.32,0.22H2.88
	c-0.17,0-0.32-0.1-0.32-0.22V469.6z"/>
<line class="st0" x1="144.94" y1="481.04" x2="147.1" y2="481.04"/>
<line class="st0" x1="147.1" y1="481.04" x2="152.14" y2="476"/>
<line class="st0" x1="152.14" y1="476" x2="152.14" y2="469.52"/>
<line class="st0" x1="152.14" y1="469.52" x2="146.38" y2="463.76"/>
<line class="st0" x1="146.38" y1="463.76" x2="144.94" y2="463.76"/>
<line class="st0" x1="144.94" y1="463.76" x2="144.94" y2="463.4"/>
<line class="st0" x1="144.94" y1="463.4" x2="164.74" y2="463.4"/>
<line class="st0" x1="164.74" y1="463.4" x2="164.74" y2="481.4"/>
<line class="st0" x1="164.74" y1="481.4" x2="144.94" y2="481.4"/>
<line class="st0" x1="144.94" y1="481.4" x2="144.94" y2="481.04"/>
<line class="st0" x1="144.94" y1="481.28" x2="164.74" y2="481.28"/>
<line class="st0" x1="144.94" y1="481.04" x2="164.74" y2="481.04"/>
<line class="st0" x1="147.34" y1="480.74" x2="164.74" y2="480.74"/>
<line class="st0" x1="147.64" y1="480.5" x2="164.74" y2="480.5"/>
<line class="st0" x1="147.88" y1="480.2" x2="164.74" y2="480.2"/>
<line class="st0" x1="148.18" y1="479.96" x2="164.74" y2="479.96"/>
<line class="st0" x1="148.42" y1="479.66" x2="164.74" y2="479.66"/>
<line class="st0" x1="148.72" y1="479.42" x2="164.74" y2="479.42"/>
<line class="st0" x1="148.96" y1="479.12" x2="164.74" y2="479.12"/>
<line class="st0" x1="149.26" y1="478.88" x2="164.74" y2="478.88"/>
<line class="st0" x1="149.5" y1="478.58" x2="164.74" y2="478.58"/>
<line class="st0" x1="149.8" y1="478.34" x2="164.74" y2="478.34"/>
<line class="st0" x1="150.04" y1="478.04" x2="164.74" y2="478.04"/>
<line class="st0" x1="150.34" y1="477.8" x2="164.74" y2="477.8"/>
<line class="st0" x1="150.58" y1="477.5" x2="164.74" y2="477.5"/>
<line class="st0" x1="150.88" y1="477.26" x2="164.74" y2="477.26"/>
<line class="st0" x1="151.12" y1="476.96" x2="164.74" y2="476.96"/>
<line class="st0" x1="151.42" y1="476.72" x2="164.74" y2="476.72"/>
<line class="st0" x1="151.66" y1="476.42" x2="164.74" y2="476.42"/>
<line class="st0" x1="151.9" y1="476.18" x2="164.74" y2="476.18"/>
<line class="st0" x1="152.14" y1="475.94" x2="164.74" y2="475.94"/>
<line class="st0" x1="152.14" y1="475.64" x2="164.74" y2="475.64"/>
<line class="st0" x1="152.14" y1="475.4" x2="164.74" y2="475.4"/>
<line class="st0" x1="152.14" y1="475.1" x2="164.74" y2="475.1"/>
<line class="st0" x1="152.14" y1="474.86" x2="164.74" y2="474.86"/>
<line class="st0" x1="152.14" y1="474.56" x2="164.74" y2="474.56"/>
<line class="st0" x1="152.14" y1="474.32" x2="164.74" y2="474.32"/>
<line class="st0" x1="152.14" y1="474.02" x2="164.74" y2="474.02"/>
<line class="st0" x1="152.14" y1="473.78" x2="164.74" y2="473.78"/>
<line class="st0" x1="152.14" y1="473.48" x2="164.74" y2="473.48"/>
<line class="st0" x1="152.14" y1="473.24" x2="164.74" y2="473.24"/>
<line class="st0" x1="152.14" y1="472.94" x2="164.74" y2="472.94"/>
<line class="st0" x1="152.14" y1="472.7" x2="164.74" y2="472.7"/>
<line class="st0" x1="152.14" y1="472.4" x2="164.74" y2="472.4"/>
<line class="st0" x1="152.14" y1="472.16" x2="164.74" y2="472.16"/>
<line class="st0" x1="152.14" y1="471.86" x2="164.74" y2="471.86"/>
<line class="st0" x1="152.14" y1="471.62" x2="164.74" y2="471.62"/>
<line class="st0" x1="152.14" y1="471.32" x2="164.74" y2="471.32"/>
<line class="st0" x1="152.14" y1="471.08" x2="164.74" y2="471.08"/>
<line class="st0" x1="152.14" y1="470.78" x2="164.74" y2="470.78"/>
<line class="st0" x1="152.14" y1="470.54" x2="164.74" y2="470.54"/>
<line class="st0" x1="152.14" y1="470.24" x2="164.74" y2="470.24"/>
<line class="st0" x1="152.14" y1="470" x2="164.74" y2="470"/>
<line class="st0" x1="152.14" y1="469.7" x2="164.74" y2="469.7"/>
<line class="st0" x1="152.02" y1="469.46" x2="164.74" y2="469.46"/>
<line class="st0" x1="151.78" y1="469.16" x2="164.74" y2="469.16"/>
<line class="st0" x1="151.48" y1="468.92" x2="164.74" y2="468.92"/>
<line class="st0" x1="151.24" y1="468.62" x2="164.74" y2="468.62"/>
<line class="st0" x1="150.94" y1="468.38" x2="164.74" y2="468.38"/>
<line class="st0" x1="150.7" y1="468.08" x2="164.74" y2="468.08"/>
<line class="st0" x1="150.4" y1="467.84" x2="164.74" y2="467.84"/>
<line class="st0" x1="150.16" y1="467.54" x2="164.74" y2="467.54"/>
<line class="st0" x1="149.86" y1="467.3" x2="164.74" y2="467.3"/>
<line class="st0" x1="149.62" y1="467" x2="164.74" y2="467"/>
<line class="st0" x1="149.32" y1="466.76" x2="164.74" y2="466.76"/>
<line class="st0" x1="149.08" y1="466.46" x2="164.74" y2="466.46"/>
<line class="st0" x1="148.78" y1="466.22" x2="164.74" y2="466.22"/>
<line class="st0" x1="148.54" y1="465.92" x2="164.74" y2="465.92"/>
<line class="st0" x1="148.24" y1="465.68" x2="164.74" y2="465.68"/>
<line class="st0" x1="148" y1="465.38" x2="164.74" y2="465.38"/>
<line class="st0" x1="147.7" y1="465.14" x2="164.74" y2="465.14"/>
<line class="st0" x1="147.46" y1="464.84" x2="164.74" y2="464.84"/>
<line class="st0" x1="147.16" y1="464.6" x2="164.74" y2="464.6"/>
<line class="st0" x1="146.92" y1="464.3" x2="164.74" y2="464.3"/>
<line class="st0" x1="146.62" y1="464.06" x2="164.74" y2="464.06"/>
<line class="st0" x1="146.38" y1="463.76" x2="164.74" y2="463.76"/>
<line class="st0" x1="144.94" y1="463.52" x2="164.74" y2="463.52"/>
<line class="st0" x1="144.94" y1="513.38" x2="147.1" y2="513.38"/>
<line class="st0" x1="147.1" y1="513.38" x2="152.14" y2="508.34"/>
<line class="st0" x1="152.14" y1="508.34" x2="152.14" y2="501.86"/>
<line class="st0" x1="152.14" y1="501.86" x2="146.38" y2="496.1"/>
<line class="st0" x1="146.38" y1="496.1" x2="144.94" y2="496.1"/>
<line class="st0" x1="144.94" y1="496.1" x2="144.94" y2="495.74"/>
<line class="st0" x1="144.94" y1="495.74" x2="164.74" y2="495.74"/>
<line class="st0" x1="164.74" y1="495.74" x2="164.74" y2="513.74"/>
<line class="st0" x1="164.74" y1="513.74" x2="144.94" y2="513.74"/>
<line class="st0" x1="144.94" y1="513.74" x2="144.94" y2="513.38"/>
<line class="st0" x1="144.94" y1="513.68" x2="164.74" y2="513.68"/>
<line class="st0" x1="144.94" y1="513.38" x2="164.74" y2="513.38"/>
<line class="st0" x1="147.34" y1="513.14" x2="164.74" y2="513.14"/>
<line class="st0" x1="147.64" y1="512.84" x2="164.74" y2="512.84"/>
<line class="st0" x1="147.88" y1="512.6" x2="164.74" y2="512.6"/>
<line class="st0" x1="148.18" y1="512.3" x2="164.74" y2="512.3"/>
<line class="st0" x1="148.42" y1="512.06" x2="164.74" y2="512.06"/>
<line class="st0" x1="148.72" y1="511.76" x2="164.74" y2="511.76"/>
<line class="st0" x1="148.96" y1="511.52" x2="164.74" y2="511.52"/>
<line class="st0" x1="149.26" y1="511.22" x2="164.74" y2="511.22"/>
<line class="st0" x1="149.5" y1="510.98" x2="164.74" y2="510.98"/>
<line class="st0" x1="149.8" y1="510.68" x2="164.74" y2="510.68"/>
<line class="st0" x1="150.04" y1="510.44" x2="164.74" y2="510.44"/>
<line class="st0" x1="150.34" y1="510.14" x2="164.74" y2="510.14"/>
<line class="st0" x1="150.58" y1="509.9" x2="164.74" y2="509.9"/>
<line class="st0" x1="150.88" y1="509.6" x2="164.74" y2="509.6"/>
<line class="st0" x1="151.12" y1="509.36" x2="164.74" y2="509.36"/>
<line class="st0" x1="151.42" y1="509.06" x2="164.74" y2="509.06"/>
<line class="st0" x1="151.66" y1="508.82" x2="164.74" y2="508.82"/>
<line class="st0" x1="151.96" y1="508.52" x2="164.74" y2="508.52"/>
<line class="st0" x1="152.14" y1="508.28" x2="164.74" y2="508.28"/>
<line class="st0" x1="152.14" y1="507.98" x2="164.74" y2="507.98"/>
<line class="st0" x1="152.14" y1="507.74" x2="164.74" y2="507.74"/>
<line class="st0" x1="152.14" y1="507.44" x2="164.74" y2="507.44"/>
<line class="st0" x1="152.14" y1="507.2" x2="164.74" y2="507.2"/>
<line class="st0" x1="152.14" y1="506.9" x2="164.74" y2="506.9"/>
<line class="st0" x1="152.14" y1="506.66" x2="164.74" y2="506.66"/>
<line class="st0" x1="152.14" y1="506.36" x2="164.74" y2="506.36"/>
<line class="st0" x1="152.14" y1="506.12" x2="164.74" y2="506.12"/>
<line class="st0" x1="152.14" y1="505.82" x2="164.74" y2="505.82"/>
<line class="st0" x1="152.14" y1="505.58" x2="164.74" y2="505.58"/>
<line class="st0" x1="152.14" y1="505.28" x2="164.74" y2="505.28"/>
<line class="st0" x1="152.14" y1="505.04" x2="164.74" y2="505.04"/>
<line class="st0" x1="152.14" y1="504.74" x2="164.74" y2="504.74"/>
<line class="st0" x1="152.14" y1="504.5" x2="164.74" y2="504.5"/>
<line class="st0" x1="152.14" y1="504.2" x2="164.74" y2="504.2"/>
<line class="st0" x1="152.14" y1="503.96" x2="164.74" y2="503.96"/>
<line class="st0" x1="152.14" y1="503.66" x2="164.74" y2="503.66"/>
<line class="st0" x1="152.14" y1="503.42" x2="164.74" y2="503.42"/>
<line class="st0" x1="152.14" y1="503.12" x2="164.74" y2="503.12"/>
<line class="st0" x1="152.14" y1="502.88" x2="164.74" y2="502.88"/>
<line class="st0" x1="152.14" y1="502.58" x2="164.74" y2="502.58"/>
<line class="st0" x1="152.14" y1="502.34" x2="164.74" y2="502.34"/>
<line class="st0" x1="152.14" y1="502.04" x2="164.74" y2="502.04"/>
<line class="st0" x1="152.02" y1="501.8" x2="164.74" y2="501.8"/>
<line class="st0" x1="151.78" y1="501.5" x2="164.74" y2="501.5"/>
<line class="st0" x1="151.48" y1="501.26" x2="164.74" y2="501.26"/>
<line class="st0" x1="151.24" y1="500.96" x2="164.74" y2="500.96"/>
<line class="st0" x1="150.94" y1="500.72" x2="164.74" y2="500.72"/>
<line class="st0" x1="150.7" y1="500.42" x2="164.74" y2="500.42"/>
<line class="st0" x1="150.4" y1="500.18" x2="164.74" y2="500.18"/>
<line class="st0" x1="150.16" y1="499.88" x2="164.74" y2="499.88"/>
<line class="st0" x1="149.86" y1="499.64" x2="164.74" y2="499.64"/>
<line class="st0" x1="149.62" y1="499.34" x2="164.74" y2="499.34"/>
<line class="st0" x1="149.32" y1="499.1" x2="164.74" y2="499.1"/>
<line class="st0" x1="149.08" y1="498.8" x2="164.74" y2="498.8"/>
<line class="st0" x1="148.78" y1="498.56" x2="164.74" y2="498.56"/>
<line class="st0" x1="148.54" y1="498.32" x2="164.74" y2="498.32"/>
<line class="st0" x1="148.24" y1="498.02" x2="164.74" y2="498.02"/>
<line class="st0" x1="148" y1="497.78" x2="164.74" y2="497.78"/>
<line class="st0" x1="147.7" y1="497.48" x2="164.74" y2="497.48"/>
<line class="st0" x1="147.46" y1="497.24" x2="164.74" y2="497.24"/>
<line class="st0" x1="147.16" y1="496.94" x2="164.74" y2="496.94"/>
<line class="st0" x1="146.92" y1="496.7" x2="164.74" y2="496.7"/>
<line class="st0" x1="146.62" y1="496.4" x2="164.74" y2="496.4"/>
<line class="st0" x1="146.38" y1="496.16" x2="164.74" y2="496.16"/>
<line class="st0" x1="144.94" y1="495.86" x2="164.74" y2="495.86"/>
<line class="st7" x1="58.9" y1="477.02" x2="58.9" y2="485.24"/>
<line class="st7" x1="34.36" y1="492.86" x2="40.6" y2="499.1"/>
<line class="st7" x1="40.6" y1="499.1" x2="51.76" y2="499.1"/>
<line class="st7" x1="58.9" y1="485.24" x2="51.76" y2="492.44"/>
<line class="st7" x1="51.76" y1="492.44" x2="51.76" y2="499.1"/>
<line class="st7" x1="16" y1="484.88" x2="16.24" y2="485.12"/>
<line class="st7" x1="16.24" y1="485.12" x2="26.62" y2="485.12"/>
<line class="st7" x1="26.62" y1="485.12" x2="34.36" y2="492.86"/>
<line class="st7" x1="43.84" y1="492.86" x2="45.04" y2="491.66"/>
<line class="st7" x1="45.04" y1="491.66" x2="45.04" y2="472.4"/>
<line class="st7" x1="45.04" y1="472.4" x2="45.04" y2="472.28"/>
<line class="st7" x1="16" y1="479.24" x2="34" y2="479.24"/>
<line class="st7" x1="40.96" y1="472.28" x2="34" y2="479.24"/>
<line class="st7" x1="45.04" y1="472.28" x2="40.96" y2="472.28"/>
<line class="st7" x1="45.04" y1="472.4" x2="48.7" y2="468.68"/>
<line class="st7" x1="48.7" y1="468.68" x2="58.9" y2="468.68"/>
<line class="st7" x1="49.84" y1="464.06" x2="43.84" y2="464.06"/>
<line class="st7" x1="126.82" y1="498.26" x2="126.82" y2="472.4"/>
<line class="st7" x1="126.82" y1="498.26" x2="112.42" y2="498.26"/>
<line class="st7" x1="144.94" y1="472.4" x2="126.82" y2="472.4"/>
<line class="st7" x1="112.42" y1="498.26" x2="105.7" y2="504.92"/>
<line class="st7" x1="105.7" y1="504.92" x2="105.7" y2="508.34"/>
<line class="st7" x1="14.62" y1="472.16" x2="14.98" y2="471.74"/>
<line class="st7" x1="14.98" y1="471.74" x2="26.68" y2="471.74"/>
<line class="st7" x1="26.68" y1="471.74" x2="34.36" y2="464.06"/>
<line class="st7" x1="43.84" y1="464.06" x2="34.36" y2="464.06"/>
<line class="st7" x1="126.82" y1="472.4" x2="116.8" y2="462.38"/>
<line class="st7" x1="116.8" y1="462.38" x2="51.52" y2="462.38"/>
<line class="st7" x1="51.52" y1="462.38" x2="49.84" y2="464.06"/>
<line class="st7" x1="89.02" y1="476.66" x2="80.5" y2="485.18"/>
<line class="st7" x1="80.5" y1="485.24" x2="80.5" y2="485.18"/>
<line class="st7" x1="89.02" y1="476.66" x2="90.82" y2="476.66"/>
<line class="st7" x1="80.5" y1="485.24" x2="80.5" y2="486.32"/>
<line class="st7" x1="80.5" y1="486.32" x2="73.3" y2="486.32"/>
<line class="st7" x1="66.1" y1="493.52" x2="73.3" y2="486.32"/>
<line class="st7" x1="67.54" y1="504.74" x2="67.54" y2="504.02"/>
<line class="st7" x1="58.9" y1="493.52" x2="66.1" y2="493.52"/>
<line class="st7" x1="58.9" y1="495.44" x2="58.9" y2="493.52"/>
<line class="st7" x1="67.54" y1="504.02" x2="58.9" y2="495.44"/>
<line class="st7" x1="97.78" y1="508.34" x2="97.78" y2="481.58"/>
<line class="st7" x1="97.78" y1="481.58" x2="92.86" y2="476.66"/>
<line class="st7" x1="92.86" y1="476.66" x2="90.82" y2="476.66"/>
<line class="st7" x1="112.42" y1="483.86" x2="109.3" y2="483.86"/>
<line class="st7" x1="96.7" y1="471.26" x2="86.26" y2="471.26"/>
<line class="st7" x1="86.26" y1="471.26" x2="80.5" y2="477.02"/>
<line class="st7" x1="109.3" y1="483.86" x2="96.7" y2="471.26"/>
<line class="st7" x1="112.42" y1="491.06" x2="112.9" y2="491.06"/>
<line class="st7" x1="112.9" y1="491.06" x2="117.82" y2="486.08"/>
<line class="st7" x1="117.82" y1="486.08" x2="117.82" y2="474.44"/>
<line class="st7" x1="117.82" y1="474.44" x2="109.48" y2="466.1"/>
<line class="st7" x1="109.48" y1="466.1" x2="83.14" y2="466.1"/>
<line class="st7" x1="83.14" y1="466.1" x2="80.5" y2="468.68"/>
<line class="st7" x1="80.5" y1="493.52" x2="90.16" y2="483.86"/>
<line class="st7" x1="90.16" y1="483.86" x2="90.82" y2="483.86"/>
<line class="st7" x1="144.94" y1="504.74" x2="144.1" y2="504.74"/>
<line class="st7" x1="144.1" y1="504.74" x2="134.8" y2="514.04"/>
<line class="st7" x1="134.8" y1="514.04" x2="90.04" y2="514.04"/>
<line class="st7" x1="90.04" y1="514.04" x2="80.5" y2="504.56"/>
<line class="st7" x1="80.5" y1="504.56" x2="80.5" y2="493.52"/>
<line class="st7" x1="67.54" y1="511.94" x2="56.8" y2="511.94"/>
<line class="st7" x1="56.8" y1="511.94" x2="49.6" y2="504.74"/>
<line class="st7" x1="49.6" y1="504.74" x2="38.8" y2="504.74"/>
<line class="st7" x1="14.62" y1="491.96" x2="16.42" y2="493.76"/>
<line class="st7" x1="29.8" y1="504.5" x2="37.24" y2="511.94"/>
<line class="st7" x1="37.24" y1="511.94" x2="38.8" y2="511.94"/>
<line class="st7" x1="16.42" y1="493.76" x2="22.12" y2="493.76"/>
<polyline points="29.8,501.44 22.12,493.76 29.8,491.18 29.8,501.44 29.8,504.5 "/>
<polygon points="114.88,477.68 113.44,479.12 111.4,479.12 109.96,477.68 109.96,475.64 111.4,474.2 113.44,474.2 114.88,475.64 "/>
<polygon class="st1" points="114.88,477.68 113.44,479.12 111.4,479.12 109.96,477.68 109.96,475.64 111.4,474.2 113.44,474.2 
	114.88,475.64 "/>
<path class="st2" d="M113.56,476.66c0,0.63-0.51,1.14-1.14,1.14s-1.14-0.51-1.14-1.14c0-0.63,0.51-1.14,1.14-1.14
	S113.56,476.03,113.56,476.66z"/>
<path class="st3" d="M113.56,476.66c0,0.63-0.51,1.14-1.14,1.14s-1.14-0.51-1.14-1.14c0-0.63,0.51-1.14,1.14-1.14
	S113.56,476.03,113.56,476.66z"/>
<polygon points="114.88,484.88 113.44,486.32 111.4,486.32 109.96,484.88 109.96,482.84 111.4,481.4 113.44,481.4 114.88,482.84 "/>
<polygon class="st1" points="114.88,484.88 113.44,486.32 111.4,486.32 109.96,484.88 109.96,482.84 111.4,481.4 113.44,481.4 
	114.88,482.84 "/>
<path class="st2" d="M113.56,483.86c0,0.63-0.51,1.14-1.14,1.14s-1.14-0.51-1.14-1.14s0.51-1.14,1.14-1.14
	S113.56,483.23,113.56,483.86z"/>
<path class="st3" d="M113.56,483.86c0,0.63-0.51,1.14-1.14,1.14s-1.14-0.51-1.14-1.14s0.51-1.14,1.14-1.14
	S113.56,483.23,113.56,483.86z"/>
<polygon points="114.88,492.08 113.44,493.52 111.4,493.52 109.96,492.08 109.96,490.04 111.4,488.6 113.44,488.6 114.88,490.04 "/>
<polygon class="st1" points="114.88,492.08 113.44,493.52 111.4,493.52 109.96,492.08 109.96,490.04 111.4,488.6 113.44,488.6 
	114.88,490.04 "/>
<path class="st2" d="M113.56,491.06c0,0.63-0.51,1.14-1.14,1.14s-1.14-0.51-1.14-1.14c0-0.63,0.51-1.14,1.14-1.14
	S113.56,490.43,113.56,491.06z"/>
<path class="st3" d="M113.56,491.06c0,0.63-0.51,1.14-1.14,1.14s-1.14-0.51-1.14-1.14c0-0.63,0.51-1.14,1.14-1.14
	S113.56,490.43,113.56,491.06z"/>
<polygon points="114.88,499.28 113.44,500.72 111.4,500.72 109.96,499.28 109.96,497.24 111.4,495.8 113.44,495.8 114.88,497.24 "/>
<polygon class="st1" points="114.88,499.28 113.44,500.72 111.4,500.72 109.96,499.28 109.96,497.24 111.4,495.8 113.44,495.8 
	114.88,497.24 "/>
<path class="st2" d="M113.56,498.26c0,0.63-0.51,1.14-1.14,1.14s-1.14-0.51-1.14-1.14c0-0.63,0.51-1.14,1.14-1.14
	S113.56,497.63,113.56,498.26z"/>
<path class="st3" d="M113.56,498.26c0,0.63-0.51,1.14-1.14,1.14s-1.14-0.51-1.14-1.14c0-0.63,0.51-1.14,1.14-1.14
	S113.56,497.63,113.56,498.26z"/>
<polygon points="93.28,499.28 91.84,500.72 89.8,500.72 88.36,499.28 88.36,497.24 89.8,495.8 91.84,495.8 93.28,497.24 "/>
<polygon class="st1" points="93.28,499.28 91.84,500.72 89.8,500.72 88.36,499.28 88.36,497.24 89.8,495.8 91.84,495.8 
	93.28,497.24 "/>
<path class="st2" d="M91.96,498.26c0,0.63-0.51,1.14-1.14,1.14c-0.63,0-1.14-0.51-1.14-1.14c0-0.63,0.51-1.14,1.14-1.14
	C91.45,497.12,91.96,497.63,91.96,498.26z"/>
<path class="st3" d="M91.96,498.26c0,0.63-0.51,1.14-1.14,1.14c-0.63,0-1.14-0.51-1.14-1.14c0-0.63,0.51-1.14,1.14-1.14
	C91.45,497.12,91.96,497.63,91.96,498.26z"/>
<polygon points="93.28,492.08 91.84,493.52 89.8,493.52 88.36,492.08 88.36,490.04 89.8,488.6 91.84,488.6 93.28,490.04 "/>
<polygon class="st1" points="93.28,492.08 91.84,493.52 89.8,493.52 88.36,492.08 88.36,490.04 89.8,488.6 91.84,488.6 
	93.28,490.04 "/>
<path class="st2" d="M91.96,491.06c0,0.63-0.51,1.14-1.14,1.14c-0.63,0-1.14-0.51-1.14-1.14c0-0.63,0.51-1.14,1.14-1.14
	C91.45,489.92,91.96,490.43,91.96,491.06z"/>
<path class="st3" d="M91.96,491.06c0,0.63-0.51,1.14-1.14,1.14c-0.63,0-1.14-0.51-1.14-1.14c0-0.63,0.51-1.14,1.14-1.14
	C91.45,489.92,91.96,490.43,91.96,491.06z"/>
<polygon points="93.28,484.88 91.84,486.32 89.8,486.32 88.36,484.88 88.36,482.84 89.8,481.4 91.84,481.4 93.28,482.84 "/>
<polygon class="st1" points="93.28,484.88 91.84,486.32 89.8,486.32 88.36,484.88 88.36,482.84 89.8,481.4 91.84,481.4 
	93.28,482.84 "/>
<path class="st2" d="M91.96,483.86c0,0.63-0.51,1.14-1.14,1.14c-0.63,0-1.14-0.51-1.14-1.14s0.51-1.14,1.14-1.14
	C91.45,482.72,91.96,483.23,91.96,483.86z"/>
<path class="st3" d="M91.96,483.86c0,0.63-0.51,1.14-1.14,1.14c-0.63,0-1.14-0.51-1.14-1.14s0.51-1.14,1.14-1.14
	C91.45,482.72,91.96,483.23,91.96,483.86z"/>
<polygon points="93.28,477.68 91.84,479.12 89.8,479.12 88.36,477.68 88.36,475.64 89.8,474.2 91.84,474.2 93.28,475.64 "/>
<polygon class="st1" points="93.28,477.68 91.84,479.12 89.8,479.12 88.36,477.68 88.36,475.64 89.8,474.2 91.84,474.2 
	93.28,475.64 "/>
<path class="st2" d="M91.96,476.66c0,0.63-0.51,1.14-1.14,1.14c-0.63,0-1.14-0.51-1.14-1.14c0-0.63,0.51-1.14,1.14-1.14
	C91.45,475.52,91.96,476.03,91.96,476.66z"/>
<path class="st3" d="M91.96,476.66c0,0.63-0.51,1.14-1.14,1.14c-0.63,0-1.14-0.51-1.14-1.14c0-0.63,0.51-1.14,1.14-1.14
	C91.45,475.52,91.96,476.03,91.96,476.66z"/>
<line class="st4" x1="43.84" y1="493.76" x2="43.84" y2="491.9"/>
<path class="st2" d="M44.98,492.86c0,0.63-0.51,1.14-1.14,1.14c-0.63,0-1.14-0.51-1.14-1.14s0.51-1.14,1.14-1.14
	C44.47,491.72,44.98,492.23,44.98,492.86z"/>
<path class="st3" d="M44.98,492.86c0,0.63-0.51,1.14-1.14,1.14c-0.63,0-1.14-0.51-1.14-1.14s0.51-1.14,1.14-1.14
	C44.47,491.72,44.98,492.23,44.98,492.86z"/>
<line class="st4" x1="43.84" y1="465.02" x2="43.84" y2="463.16"/>
<path class="st2" d="M44.98,464.06c0,0.63-0.51,1.14-1.14,1.14c-0.63,0-1.14-0.51-1.14-1.14c0-0.63,0.51-1.14,1.14-1.14
	C44.47,462.92,44.98,463.43,44.98,464.06z"/>
<path class="st3" d="M44.98,464.06c0,0.63-0.51,1.14-1.14,1.14c-0.63,0-1.14-0.51-1.14-1.14c0-0.63,0.51-1.14,1.14-1.14
	C44.47,462.92,44.98,463.43,44.98,464.06z"/>
<line class="st4" x1="34.36" y1="493.76" x2="34.36" y2="491.9"/>
<path class="st2" d="M35.5,492.86c0,0.63-0.51,1.14-1.14,1.14s-1.14-0.51-1.14-1.14s0.51-1.14,1.14-1.14S35.5,492.23,35.5,492.86z"
	/>
<path class="st3" d="M35.5,492.86c0,0.63-0.51,1.14-1.14,1.14s-1.14-0.51-1.14-1.14s0.51-1.14,1.14-1.14S35.5,492.23,35.5,492.86z"
	/>
<line class="st4" x1="34.36" y1="465.02" x2="34.36" y2="463.16"/>
<path class="st2" d="M35.5,464.06c0,0.63-0.51,1.14-1.14,1.14s-1.14-0.51-1.14-1.14c0-0.63,0.51-1.14,1.14-1.14
	S35.5,463.43,35.5,464.06z"/>
<path class="st3" d="M35.5,464.06c0,0.63-0.51,1.14-1.14,1.14s-1.14-0.51-1.14-1.14c0-0.63,0.51-1.14,1.14-1.14
	S35.5,463.43,35.5,464.06z"/>
<ellipse transform="matrix(0.2298 -0.9732 0.9732 0.2298 -418.8929 424.7481)" class="st5" cx="58.9" cy="477.02" rx="2.64" ry="2.64"/>
<ellipse transform="matrix(0.2298 -0.9732 0.9732 0.2298 -418.8929 424.7481)" class="st1" cx="58.9" cy="477.02" rx="2.64" ry="2.64"/>
<path class="st2" d="M60.16,477.02c0,0.7-0.56,1.26-1.26,1.26s-1.26-0.56-1.26-1.26s0.56-1.26,1.26-1.26S60.16,476.33,60.16,477.02z
	"/>
<path class="st3" d="M60.16,477.02c0,0.7-0.56,1.26-1.26,1.26s-1.26-0.56-1.26-1.26s0.56-1.26,1.26-1.26S60.16,476.33,60.16,477.02z
	"/>
<ellipse transform="matrix(0.2298 -0.9732 0.9732 0.2298 -402.2556 445.7703)" class="st5" cx="80.5" cy="477.02" rx="2.64" ry="2.64"/>
<ellipse transform="matrix(0.2298 -0.9732 0.9732 0.2298 -402.2556 445.7703)" class="st1" cx="80.5" cy="477.02" rx="2.64" ry="2.64"/>
<path class="st2" d="M81.76,477.02c0,0.7-0.56,1.26-1.26,1.26c-0.7,0-1.26-0.56-1.26-1.26s0.56-1.26,1.26-1.26
	C81.2,475.76,81.76,476.33,81.76,477.02z"/>
<path class="st3" d="M81.76,477.02c0,0.7-0.56,1.26-1.26,1.26c-0.7,0-1.26-0.56-1.26-1.26s0.56-1.26,1.26-1.26
	C81.2,475.76,81.76,476.33,81.76,477.02z"/>
<ellipse transform="matrix(0.2298 -0.9732 0.9732 0.2298 -410.776 418.3242)" class="st5" cx="58.9" cy="468.68" rx="2.64" ry="2.64"/>
<ellipse transform="matrix(0.2298 -0.9732 0.9732 0.2298 -410.776 418.3242)" class="st1" cx="58.9" cy="468.68" rx="2.64" ry="2.64"/>
<path class="st2" d="M60.16,468.68c0,0.7-0.56,1.26-1.26,1.26s-1.26-0.56-1.26-1.26s0.56-1.26,1.26-1.26S60.16,467.99,60.16,468.68z
	"/>
<path class="st3" d="M60.16,468.68c0,0.7-0.56,1.26-1.26,1.26s-1.26-0.56-1.26-1.26s0.56-1.26,1.26-1.26S60.16,467.99,60.16,468.68z
	"/>
<ellipse transform="matrix(0.2298 -0.9732 0.9732 0.2298 -394.1387 439.3464)" class="st5" cx="80.5" cy="468.68" rx="2.64" ry="2.64"/>
<ellipse transform="matrix(0.2298 -0.9732 0.9732 0.2298 -394.1387 439.3464)" class="st1" cx="80.5" cy="468.68" rx="2.64" ry="2.64"/>
<path class="st2" d="M81.76,468.68c0,0.7-0.56,1.26-1.26,1.26c-0.7,0-1.26-0.56-1.26-1.26s0.56-1.26,1.26-1.26
	C81.2,467.42,81.76,467.99,81.76,468.68z"/>
<path class="st3" d="M81.76,468.68c0,0.7-0.56,1.26-1.26,1.26c-0.7,0-1.26-0.56-1.26-1.26s0.56-1.26,1.26-1.26
	C81.2,467.42,81.76,467.99,81.76,468.68z"/>
<ellipse transform="matrix(0.2298 -0.9732 0.9732 0.2298 -434.9515 437.4572)" class="st5" cx="58.9" cy="493.52" rx="2.64" ry="2.64"/>
<ellipse transform="matrix(0.2298 -0.9732 0.9732 0.2298 -434.9515 437.4572)" class="st1" cx="58.9" cy="493.52" rx="2.64" ry="2.64"/>
<path class="st2" d="M60.16,493.52c0,0.7-0.56,1.26-1.26,1.26s-1.26-0.56-1.26-1.26s0.56-1.26,1.26-1.26S60.16,492.83,60.16,493.52z
	"/>
<path class="st3" d="M60.16,493.52c0,0.7-0.56,1.26-1.26,1.26s-1.26-0.56-1.26-1.26s0.56-1.26,1.26-1.26S60.16,492.83,60.16,493.52z
	"/>
<ellipse transform="matrix(0.2298 -0.9732 0.9732 0.2298 -418.3142 458.4793)" class="st5" cx="80.5" cy="493.52" rx="2.64" ry="2.64"/>
<ellipse transform="matrix(0.2298 -0.9732 0.9732 0.2298 -418.3142 458.4793)" class="st1" cx="80.5" cy="493.52" rx="2.64" ry="2.64"/>
<path class="st2" d="M81.76,493.52c0,0.7-0.56,1.26-1.26,1.26c-0.7,0-1.26-0.56-1.26-1.26s0.56-1.26,1.26-1.26
	C81.2,492.26,81.76,492.83,81.76,493.52z"/>
<path class="st3" d="M81.76,493.52c0,0.7-0.56,1.26-1.26,1.26c-0.7,0-1.26-0.56-1.26-1.26s0.56-1.26,1.26-1.26
	C81.2,492.26,81.76,492.83,81.76,493.52z"/>
<ellipse transform="matrix(0.2298 -0.9732 0.9732 0.2298 -426.893 431.0795)" class="st5" cx="58.9" cy="485.24" rx="2.64" ry="2.64"/>
<ellipse transform="matrix(0.2298 -0.9732 0.9732 0.2298 -426.893 431.0795)" class="st1" cx="58.9" cy="485.24" rx="2.64" ry="2.64"/>
<path class="st2" d="M60.16,485.24c0,0.7-0.56,1.26-1.26,1.26s-1.26-0.56-1.26-1.26s0.56-1.26,1.26-1.26S60.16,484.55,60.16,485.24z
	"/>
<path class="st3" d="M60.16,485.24c0,0.7-0.56,1.26-1.26,1.26s-1.26-0.56-1.26-1.26s0.56-1.26,1.26-1.26S60.16,484.55,60.16,485.24z
	"/>
<ellipse transform="matrix(0.2298 -0.9732 0.9732 0.2298 -410.2557 452.1017)" class="st5" cx="80.5" cy="485.24" rx="2.64" ry="2.64"/>
<ellipse transform="matrix(0.2298 -0.9732 0.9732 0.2298 -410.2557 452.1017)" class="st1" cx="80.5" cy="485.24" rx="2.64" ry="2.64"/>
<path class="st2" d="M81.76,485.24c0,0.7-0.56,1.26-1.26,1.26c-0.7,0-1.26-0.56-1.26-1.26s0.56-1.26,1.26-1.26
	C81.2,483.98,81.76,484.55,81.76,485.24z"/>
<path class="st3" d="M81.76,485.24c0,0.7-0.56,1.26-1.26,1.26c-0.7,0-1.26-0.56-1.26-1.26s0.56-1.26,1.26-1.26
	C81.2,483.98,81.76,484.55,81.76,485.24z"/>
<circle class="st5" cx="144.94" cy="472.4" r="9.12"/>
<circle class="st1" cx="144.94" cy="472.4" r="9.12"/>
<circle class="st2" cx="144.94" cy="472.4" r="5.64"/>
<circle class="st3" cx="144.94" cy="472.4" r="5.64"/>
<circle class="st5" cx="144.94" cy="504.74" r="9.12"/>
<circle class="st1" cx="144.94" cy="504.74" r="9.12"/>
<circle class="st2" cx="144.94" cy="504.74" r="5.64"/>
<circle class="st3" cx="144.94" cy="504.74" r="5.64"/>
<line class="st4" x1="68.5" y1="504.74" x2="66.64" y2="504.74"/>
<path class="st2" d="M68.68,504.74c0,0.63-0.51,1.14-1.14,1.14c-0.63,0-1.14-0.51-1.14-1.14c0-0.63,0.51-1.14,1.14-1.14
	C68.17,503.6,68.68,504.11,68.68,504.74z"/>
<path class="st3" d="M68.68,504.74c0,0.63-0.51,1.14-1.14,1.14c-0.63,0-1.14-0.51-1.14-1.14c0-0.63,0.51-1.14,1.14-1.14
	C68.17,503.6,68.68,504.11,68.68,504.74z"/>
<line class="st4" x1="39.7" y1="504.74" x2="37.84" y2="504.74"/>
<path class="st2" d="M39.94,504.74c0,0.63-0.51,1.14-1.14,1.14s-1.14-0.51-1.14-1.14c0-0.63,0.51-1.14,1.14-1.14
	S39.94,504.11,39.94,504.74z"/>
<path class="st3" d="M39.94,504.74c0,0.63-0.51,1.14-1.14,1.14s-1.14-0.51-1.14-1.14c0-0.63,0.51-1.14,1.14-1.14
	S39.94,504.11,39.94,504.74z"/>
<line class="st4" x1="68.5" y1="511.94" x2="66.64" y2="511.94"/>
<path class="st2" d="M68.68,511.94c0,0.63-0.51,1.14-1.14,1.14c-0.63,0-1.14-0.51-1.14-1.14s0.51-1.14,1.14-1.14
	C68.17,510.8,68.68,511.31,68.68,511.94z"/>
<path class="st3" d="M68.68,511.94c0,0.63-0.51,1.14-1.14,1.14c-0.63,0-1.14-0.51-1.14-1.14s0.51-1.14,1.14-1.14
	C68.17,510.8,68.68,511.31,68.68,511.94z"/>
<line class="st4" x1="39.7" y1="511.94" x2="37.84" y2="511.94"/>
<path class="st2" d="M39.94,511.94c0,0.63-0.51,1.14-1.14,1.14s-1.14-0.51-1.14-1.14s0.51-1.14,1.14-1.14S39.94,511.31,39.94,511.94
	z"/>
<path class="st3" d="M39.94,511.94c0,0.63-0.51,1.14-1.14,1.14s-1.14-0.51-1.14-1.14s0.51-1.14,1.14-1.14S39.94,511.31,39.94,511.94
	z"/>
<ellipse transform="matrix(0.2298 -0.9732 0.9732 0.2298 -419.4279 486.7121)" class="st5" cx="97.78" cy="508.34" rx="2.76" ry="2.76"/>
<ellipse transform="matrix(0.2298 -0.9732 0.9732 0.2298 -419.4279 486.7121)" class="st1" cx="97.78" cy="508.34" rx="2.76" ry="2.76"/>
<path class="st2" d="M98.92,508.34c0,0.63-0.51,1.14-1.14,1.14c-0.63,0-1.14-0.51-1.14-1.14c0-0.63,0.51-1.14,1.14-1.14
	C98.41,507.2,98.92,507.71,98.92,508.34z"/>
<path class="st3" d="M98.92,508.34c0,0.63-0.51,1.14-1.14,1.14c-0.63,0-1.14-0.51-1.14-1.14c0-0.63,0.51-1.14,1.14-1.14
	C98.41,507.2,98.92,507.71,98.92,508.34z"/>
<ellipse transform="matrix(0.1602 -0.9871 0.9871 0.1602 -413.0086 531.249)" class="st5" cx="105.7" cy="508.34" rx="2.76" ry="2.76"/>
<ellipse transform="matrix(0.1602 -0.9871 0.9871 0.1602 -413.0086 531.249)" class="st1" cx="105.7" cy="508.34" rx="2.76" ry="2.76"/>
<path class="st2" d="M106.84,508.34c0,0.63-0.51,1.14-1.14,1.14c-0.63,0-1.14-0.51-1.14-1.14c0-0.63,0.51-1.14,1.14-1.14
	C106.33,507.2,106.84,507.71,106.84,508.34z"/>
<path class="st3" d="M106.84,508.34c0,0.63-0.51,1.14-1.14,1.14c-0.63,0-1.14-0.51-1.14-1.14c0-0.63,0.51-1.14,1.14-1.14
	C106.33,507.2,106.84,507.71,106.84,508.34z"/>
<line class="st8" x1="26.2" y1="499.34" x2="26.2" y2="519.14"/>
<line class="st8" x1="26.2" y1="465.2" x2="26.2" y2="458"/>
<line class="st8" x1="26.2" y1="458" x2="164.74" y2="458"/>
<line class="st8" x1="164.74" y1="458" x2="164.74" y2="519.14"/>
<line class="st8" x1="164.74" y1="519.14" x2="26.2" y2="519.14"/>
<rect x="26.2" y="458" width="138.54" height="61.14"/>
<rect class="st6" width="591.87" height="458"/>
<rect x="25" y="452.51" class="st6" width="566.87" height="66.64"/>
<rect y="450" class="st6" width="26.68" height="14.6"/>
<rect y="499.97" class="st6" width="32.26" height="19.17"/>
</svg>
